<svg width="192" height="192" viewBox="0 0 192 192" fill="none" xmlns="http://www.w3.org/2000/svg">
<path d="M141.537 88.988C140.706 88.5896 139.866 88.2086 139.019 87.845C137.537 60.538 122.616 44.905 97.562 44.745H97.222C82.236 44.745 69.773 51.141 62.102 62.781L75.881 72.233C81.611 63.538 90.605 61.685 97.229 61.685H97.458C105.707 61.738 111.932 64.137 115.961 68.814C118.893 72.219 120.854 76.925 121.825 82.864C114.511 81.621 106.601 81.238 98.145 81.724C74.325 83.095 59.011 96.988 60.04 116.292C60.562 126.084 65.44 134.508 73.775 140.011C80.822 144.663 89.899 146.938 99.332 146.423C111.79 145.74 121.563 140.987 128.381 132.296C133.559 125.696 136.834 117.143 138.28 106.366C144.217 109.949 148.617 114.664 151.047 120.332C155.179 129.967 155.42 145.8 142.501 158.708C131.182 170.016 117.576 174.908 97.013 175.059C74.204 174.89 56.953 167.575 45.738 153.317C35.236 139.966 29.808 120.682 29.605 96C29.808 71.318 35.235 52.034 45.738 38.683C56.954 24.425 74.204 17.11 97.013 16.94C119.988 17.11 137.539 24.46 149.184 38.787C154.894 45.813 159.199 54.647 162.037 64.949L178.184 60.641C174.744 47.961 169.331 37.035 161.965 27.973C147.036 9.607 125.202 0.195 97.07 0H96.957C68.882 0.194 47.292 9.642 32.788 28.08C19.882 44.485 13.224 67.315 13.001 95.932L13 96V96.067C13.224 124.684 19.882 147.514 32.788 163.921C47.292 182.358 68.882 191.806 96.957 192H97.07C122.03 191.827 139.624 185.292 154.118 170.811C173.081 151.866 172.51 128.119 166.26 113.541C161.776 103.087 153.227 94.596 141.537 88.988ZM98.44 129.507C88 130.095 77.154 125.409 76.62 115.372C76.223 107.93 81.916 99.626 99.081 98.637C101.047 98.523 102.976 98.468 104.871 98.468C111.106 98.468 116.939 99.074 122.242 100.233C120.264 124.935 108.662 128.946 98.44 129.507Z" fill="white"/>
</svg>
