<?xml version="1.0" encoding="UTF-8"?>
<!-- Generated by Pixelmator Pro 3.6.10 -->
<svg width="100" height="100" viewBox="0 0 100 100" xmlns="http://www.w3.org/2000/svg">
    <path id="Path" fill="#ffffff" fill-rule="evenodd" stroke="none" d="M 65.366669 9.762505 C 61.180424 5.688324 54.511242 5.688324 50.325001 9.762505 L 10.216666 49.095833 C 8.82113 50.452259 6.599704 50.452259 5.204166 49.095833 C 4.540299 48.450211 4.16577 47.563538 4.16577 46.637501 C 4.16577 45.71146 4.540299 44.824787 5.204166 44.179165 L 45.3125 4.845833 C 52.288925 -1.94339 63.40274 -1.94339 70.379173 4.845833 C 74.317017 8.6754 76.18222 14.159485 75.395828 19.595833 C 80.899658 18.813034 86.455055 20.62944 90.433334 24.512497 L 90.641663 24.720833 C 93.960999 27.948944 95.833649 32.382309 95.833649 37.012501 C 95.833649 41.642693 93.960999 46.076054 90.641663 49.304169 L 54.366669 84.875 C 54.145458 85.089966 54.020641 85.3853 54.020641 85.693748 C 54.020641 86.002205 54.145458 86.297539 54.366669 86.512505 L 61.816669 93.820831 C 62.480534 94.466454 62.855064 95.353127 62.855064 96.279167 C 62.855064 97.2052 62.480534 98.091881 61.816669 98.737503 C 60.421127 100.093925 58.199703 100.093925 56.804169 98.737503 L 49.354168 91.433334 C 47.803917 89.926979 46.929207 87.857407 46.929207 85.695831 C 46.929207 83.534264 47.803917 81.464691 49.354168 79.958336 L 85.629166 44.383335 C 87.619705 42.445889 88.742554 39.786087 88.742554 37.008331 C 88.742554 34.230576 87.619705 31.570778 85.629166 29.633331 L 85.42083 29.429169 C 81.23954 25.359612 74.579727 25.354065 70.391663 29.416664 L 40.508335 58.724998 L 40.5 58.733334 L 40.091667 59.137501 C 38.69561 60.496628 36.471058 60.496628 35.075001 59.137501 C 34.411133 58.491879 34.036606 57.605206 34.036606 56.679165 C 34.036606 55.753128 34.411133 54.866455 35.075001 54.220833 L 65.379166 24.500008 C 67.364151 22.56131 68.482239 19.903259 68.479889 17.128609 C 68.477524 14.353966 67.354935 11.697815 65.366669 9.762505 Z"/>
    <path id="path1" fill="#ffffff" fill-rule="evenodd" stroke="none" d="M 60.354164 19.595833 C 61.018032 18.950211 61.392563 18.063538 61.392563 17.137497 C 61.392563 16.211464 61.018032 15.324791 60.354164 14.679169 C 58.958111 13.32003 56.733555 13.32003 55.337502 14.679169 L 25.675001 43.770832 C 22.355663 46.998943 20.483017 51.432308 20.483017 56.0625 C 20.483017 60.692692 22.355663 65.126053 25.675001 68.354172 C 32.652317 75.141197 43.764347 75.141197 50.741669 68.354172 L 80.408333 39.262501 C 81.072205 38.616879 81.446724 37.730206 81.446724 36.804169 C 81.446724 35.878128 81.072205 34.991455 80.408333 34.345833 C 79.012276 32.986702 76.787727 32.986702 75.391663 34.345833 L 45.729168 63.4375 C 41.542923 67.511673 34.873741 67.511673 30.687498 63.4375 C 28.696964 61.500057 27.574118 58.840256 27.574118 56.0625 C 27.574118 53.284744 28.696964 50.624943 30.687498 48.6875 L 60.354164 19.595833 Z"/>
</svg>
