<svg width="138" height="138" viewBox="0 0 138 138" fill="none" xmlns="http://www.w3.org/2000/svg">
<path fill-rule="evenodd" clip-rule="evenodd" d="M1.62192 33.0127C1.81512 26.0384 6.07423 17.3682 11.7735 11.7006C17.8317 5.61822 26.7889 1.57206 33.4801 1.55779C36.2996 1.55779 38.1832 3.44299 38.1832 6.15246C38.1832 8.32468 36.8365 10.0153 34.4508 10.6337C27.781 12.0966 23.2192 13.6302 18.3302 18.2616C14.0124 22.6647 11.9899 27.7034 10.7892 33.9909C10.2681 36.5366 8.5793 37.9642 6.03609 37.9642C3.31389 37.9642 1.54038 35.9017 1.62192 33.0127ZM49.8542 0.666656H88.1445C90.6749 0.666656 92.8336 2.81258 92.8336 5.359C92.8336 7.90541 90.6749 10.1175 88.1445 10.1175H49.8542C47.3094 10.1175 45.0994 7.90541 45.0994 5.359C45.0994 2.81258 47.3094 0.666656 49.8542 0.666656ZM104.518 1.55779C111.175 1.57206 120.198 5.64978 126.225 11.7006C131.939 17.3682 136.118 26.0384 136.39 33.0127C136.472 35.9017 134.684 37.9642 131.948 37.9642C129.353 37.9642 127.73 36.5366 127.209 33.9909C125.994 27.7034 123.92 22.6647 119.668 18.2616C114.682 13.5325 109.942 12.0147 103.482 10.6337C101.148 10.0153 99.7496 8.32468 99.7496 6.15246C99.7496 3.44299 101.685 1.55779 104.518 1.55779ZM137.333 49.9569V88.2882C137.333 90.8347 135.174 92.9947 132.563 92.9947C130.017 92.9947 127.874 90.8506 127.874 88.2882V49.9569C127.874 47.3444 130.033 45.1849 132.563 45.1849C135.174 45.1849 137.333 47.3444 137.333 49.9569ZM136.39 104.936C136.118 111.948 131.939 120.552 126.225 126.3C120.167 132.316 111.144 136.363 104.518 136.377C101.685 136.377 99.7496 134.543 99.7496 131.834C99.7496 129.595 101.148 127.985 103.482 127.352C110.219 125.89 114.748 124.387 119.668 119.738C123.92 115.27 125.994 110.283 127.209 103.995C127.73 101.45 129.353 100.036 131.948 100.036C134.684 100.036 136.472 102.019 136.39 104.936ZM88.1445 137.333H49.8542C47.3094 137.333 45.0994 135.122 45.0994 132.575C45.0994 130.029 47.3094 127.883 49.8542 127.883H88.1445C90.6749 127.883 92.8336 130.029 92.8336 132.575C92.8336 135.122 90.6749 137.333 88.1445 137.333ZM33.4801 136.377C26.7573 136.363 17.8001 132.285 11.7735 126.3C6.07423 120.552 1.81512 111.948 1.62192 104.936C1.54038 102.019 3.31389 100.036 6.03609 100.036C8.5793 100.036 10.2681 101.45 10.7892 103.995C11.9899 110.283 14.0124 115.27 18.3302 119.738C23.3008 124.437 28.0574 125.987 34.4508 127.352C36.8365 127.985 38.1832 129.595 38.1832 131.834C38.1832 134.543 36.2996 136.377 33.4801 136.377ZM0.666016 88.2882V49.9569C0.666016 47.3444 2.82441 45.1849 5.35492 45.1849C7.96555 45.1849 10.1239 47.3444 10.1239 49.9569V88.2882C10.1239 90.8506 7.98132 92.9947 5.35492 92.9947C2.82441 92.9947 0.666016 90.8347 0.666016 88.2882ZM89.3218 18.6689C99.2601 18.6689 106.959 19.7877 112.627 25.3494C118.216 30.9757 119.221 38.6803 119.221 48.5917V89.3207C119.221 99.3119 118.216 106.971 112.627 112.563C106.975 118.205 99.2601 119.227 89.3218 119.227H48.6355C38.7471 119.227 30.9822 118.205 25.3797 112.563C19.7414 107.001 18.7199 99.3119 18.7199 89.3207V48.506C18.7199 38.7089 19.7414 31.02 25.3939 25.3637C30.9664 19.7877 38.7613 18.6689 48.5217 18.6689H89.3218ZM102.5 77.1321C102.5 73.2429 100.502 70.3436 96.0069 68.5757V67.6564C99.5029 65.9593 100.787 62.7771 100.787 58.2514V56.9786C100.787 48.21 96.435 44.25 86.9457 44.25H40.5697C39.8563 44.25 39.4995 44.6036 39.4995 45.3107V92.6893C39.4995 93.3964 39.8563 93.75 40.5697 93.75H87.3738C98.0046 93.75 102.5 88.6586 102.5 80.1021V77.1321ZM85.4474 54.0793C87.7305 54.0793 89.6569 54.0793 89.6569 58.2514V59.8071C89.6569 63.7671 87.7305 64.05 85.4474 64.05H50.8438V54.0793H85.4474ZM91.3693 77.1321V79.8193C91.3693 82.9307 89.7996 83.9207 86.589 83.9207H50.8438V72.96H86.589C89.7996 72.96 91.3693 74.1621 91.3693 77.1321Z" fill="#EBEBF5" fill-opacity="0.16" style="fill:#EBEBF5;fill:color(display-p3 0.9216 0.9216 0.9608);fill-opacity:0.16;"/>
</svg>
